<svg width="18" height="21" viewBox="0 0 18 21" fill="none" xmlns="http://www.w3.org/2000/svg">
<path fill-rule="evenodd" clip-rule="evenodd" d="M1.19732 15.3158C1.57515 15.4856 1.74382 15.9295 1.57406 16.3073C1.45659 16.5688 1.46763 16.8335 1.69385 17.155C1.94645 17.514 2.45773 17.9142 3.2751 18.2739C4.08063 18.6284 5.10062 18.9068 6.25517 19.0742C7.4073 19.2413 8.6422 19.2905 9.85379 19.2164C11.0663 19.1421 12.2071 18.9474 13.1806 18.6546C14.1612 18.3597 14.9063 17.9851 15.3875 17.5911C15.8703 17.1959 16.0002 16.8594 16.0002 16.6275C16.0002 16.2133 16.336 15.8775 16.7502 15.8775C17.1644 15.8775 17.5002 16.2133 17.5002 16.6275C17.5002 17.4699 17.0214 18.1921 16.3376 18.7518C15.6522 19.3129 14.7064 19.7621 13.6126 20.091C12.5118 20.4221 11.2547 20.6334 9.94542 20.7136C8.63521 20.7937 7.29735 20.7411 6.03987 20.5587C4.78482 20.3767 3.62806 20.0681 2.67089 19.6468C1.72555 19.2308 0.93915 18.689 0.467104 18.0181C-0.0313205 17.3098 -0.150929 16.4866 0.205822 15.6926C0.375584 15.3147 0.819492 15.1461 1.19732 15.3158Z" fill="#fff"/>
<path fill-rule="evenodd" clip-rule="evenodd" d="M11.0359 15.0647L13.8196 8.72569C15.2912 5.37456 12.7662 1.5 8.75025 1.5C4.73425 1.5 2.20928 5.37456 3.6809 8.72569L6.46463 15.0647C6.83547 15.9092 7.722 16.5 8.75025 16.5C9.77849 16.5 10.665 15.9092 11.0359 15.0647ZM8.75025 0C3.74718 0 0.362803 4.90042 2.3075 9.32881L5.09122 15.6678C5.71191 17.0812 7.15342 18 8.75025 18C10.3471 18 11.7886 17.0812 12.4093 15.6678L15.193 9.32881C17.1377 4.90042 13.7533 0 8.75025 0Z" fill="#fff"/>
<path d="M10.7502 6C10.7502 7.10457 9.85481 8 8.75024 8C7.64567 8 6.75024 7.10457 6.75024 6C6.75024 4.89543 7.64567 4 8.75024 4C9.85481 4 10.7502 4.89543 10.7502 6Z" fill="#fff"/>
</svg>
