<svg width="827" height="99" viewBox="0 0 827 99" fill="none" xmlns="http://www.w3.org/2000/svg">
<path d="M19.712 98.536C15.7867 98.536 12.0747 97.8533 8.576 96.488C5.16267 95.1227 2.304 93.3307 0 91.112L5.888 81.768C7.59467 83.56 9.64267 85.0533 12.032 86.248C14.4213 87.4427 16.8533 88.04 19.328 88.04C23.424 88.04 26.6667 86.5893 29.056 83.688C31.4453 80.7013 32.64 75.7093 32.64 68.712V7.39999H44.8V67.432C44.8 78.2693 42.496 86.1627 37.888 91.112C33.28 96.0613 27.2213 98.536 19.712 98.536ZM90.712 98.536C85.1653 98.536 80.1307 97.128 75.608 94.312C71.0853 91.496 67.4587 87.528 64.728 82.408C62.0827 77.2027 60.76 71.1013 60.76 64.104C60.76 57.448 62.0827 51.4747 64.728 46.184C67.4587 40.8933 71.1707 36.712 75.864 33.64C80.6427 30.4827 86.104 28.904 92.248 28.904C96.088 28.904 99.544 29.5867 102.616 30.952C105.773 32.232 108.504 33.8533 110.808 35.816V30.44H121.304V80.872C121.304 84.1147 122.072 86.248 123.608 87.272C125.229 88.2107 126.979 88.68 128.856 88.68L126.424 97.64C118.232 97.64 113.283 94.312 111.576 87.656C109.613 90.3867 106.925 92.904 103.512 95.208C100.184 97.4267 95.9173 98.536 90.712 98.536ZM93.272 88.296C96.5147 88.296 99.5867 87.528 102.488 85.992C105.389 84.3707 107.821 82.3653 109.784 79.976V44.264C107.48 42.6427 104.92 41.3627 102.104 40.424C99.3733 39.4 96.472 38.888 93.4 38.888C89.304 38.888 85.6773 39.9547 82.52 42.088C79.448 44.136 77.016 47.0373 75.224 50.792C73.432 54.4613 72.536 58.7707 72.536 63.72C72.536 68.4987 73.432 72.7653 75.224 76.52C77.016 80.1893 79.4907 83.0907 82.648 85.224C85.8053 87.272 89.3467 88.296 93.272 88.296ZM169.87 98.536C163.555 98.536 158.009 97.0853 153.23 94.184C148.537 91.1973 144.91 87.1013 142.35 81.896C139.79 76.6053 138.51 70.5467 138.51 63.72C138.51 57.32 139.79 51.4747 142.35 46.184C144.995 40.8933 148.75 36.712 153.614 33.64C158.478 30.4827 164.195 28.904 170.766 28.904C174.521 28.904 177.806 29.2453 180.622 29.928C183.523 30.6107 186.297 31.592 188.942 32.872L185.486 42.6C183.097 41.4053 180.793 40.552 178.574 40.04C176.441 39.4427 174.051 39.144 171.406 39.144C165.433 39.144 160.398 41.32 156.302 45.672C152.291 49.9387 150.286 55.8693 150.286 63.464C150.286 68.072 151.139 72.2533 152.846 76.008C154.553 79.7627 156.899 82.7493 159.886 84.968C162.958 87.1867 166.542 88.296 170.638 88.296C173.881 88.296 176.654 87.9547 178.958 87.272C181.262 86.504 183.737 85.4373 186.382 84.072L189.966 93.8C187.321 95.2507 184.334 96.4027 181.006 97.256C177.763 98.1093 174.051 98.536 169.87 98.536ZM203.365 97V30.44H214.885V97H203.365ZM209.125 19.048C206.906 19.048 204.986 18.2373 203.365 16.616C201.829 14.9947 201.061 13.1173 201.061 10.984C201.061 8.50933 201.786 6.54666 203.237 5.09599C204.688 3.64533 206.65 2.92 209.125 2.92C211.344 2.92 213.221 3.73066 214.757 5.352C216.378 6.888 217.189 8.76533 217.189 10.984C217.189 13.3733 216.464 15.336 215.013 16.872C213.562 18.3227 211.6 19.048 209.125 19.048ZM235.365 97V30.44H246.501V41.576C248.89 37.992 251.92 35.0053 255.589 32.616C259.344 30.1413 263.781 28.904 268.901 28.904C276.41 28.904 282 31.1653 285.669 35.688C289.424 40.2107 291.301 46.184 291.301 53.608V97H279.781V54.888C279.781 50.1093 278.629 46.2693 276.325 43.368C274.106 40.4667 270.992 39.016 266.981 39.016C263.056 39.016 259.344 40.424 255.845 43.24C252.346 45.9707 249.36 49.2133 246.885 52.968V97H235.365ZM334.411 98.536C328.011 98.536 322.934 96.4453 319.179 92.264C315.51 87.9973 313.675 81.9387 313.675 74.088V42.856H302.155V32.872H313.931L316.363 11.88H325.195V32.872H343.627V42.856H325.195V74.984C325.195 79.9333 326.219 83.3893 328.267 85.352C330.4 87.3147 332.918 88.296 335.819 88.296C337.952 88.296 339.958 87.9547 341.835 87.272C343.798 86.5893 345.59 85.7787 347.211 84.84L350.411 94.056C348.704 95.08 346.4 96.0613 343.499 97C340.598 98.024 337.568 98.536 334.411 98.536ZM384.962 98.536C379.415 98.536 374.381 97.128 369.858 94.312C365.335 91.496 361.709 87.528 358.978 82.408C356.333 77.2027 355.01 71.1013 355.01 64.104C355.01 57.448 356.333 51.4747 358.978 46.184C361.709 40.8933 365.421 36.712 370.114 33.64C374.893 30.4827 380.354 28.904 386.498 28.904C390.338 28.904 393.794 29.5867 396.866 30.952C400.023 32.232 402.754 33.8533 405.058 35.816V30.44H415.554V80.872C415.554 84.1147 416.322 86.248 417.858 87.272C419.479 88.2107 421.229 88.68 423.106 88.68L420.674 97.64C412.482 97.64 407.533 94.312 405.826 87.656C403.863 90.3867 401.175 92.904 397.762 95.208C394.434 97.4267 390.167 98.536 384.962 98.536ZM387.522 88.296C390.765 88.296 393.837 87.528 396.738 85.992C399.639 84.3707 402.071 82.3653 404.034 79.976V44.264C401.73 42.6427 399.17 41.3627 396.354 40.424C393.623 39.4 390.722 38.888 387.65 38.888C383.554 38.888 379.927 39.9547 376.77 42.088C373.698 44.136 371.266 47.0373 369.474 50.792C367.682 54.4613 366.786 58.7707 366.786 63.72C366.786 68.4987 367.682 72.7653 369.474 76.52C371.266 80.1893 373.741 83.0907 376.898 85.224C380.055 87.272 383.597 88.296 387.522 88.296ZM439.258 32.744L436.314 28.264C440.751 25.192 443.397 21.3093 444.25 16.616C443.482 16.9573 442.586 17.128 441.562 17.128C439.173 17.128 437.21 16.36 435.674 14.824C434.138 13.288 433.37 11.3253 433.37 8.936C433.37 6.46133 434.181 4.49866 435.802 3.048C437.423 1.512 439.471 0.743996 441.946 0.743996C444.933 0.743996 447.365 1.72533 449.242 3.688C451.205 5.65066 452.186 8.46666 452.186 12.136C452.186 16.0613 451.034 19.944 448.73 23.784C446.511 27.5387 443.354 30.5253 439.258 32.744ZM485.41 98.536C480.375 98.536 475.81 97.896 471.714 96.616C467.703 95.336 464.375 93.672 461.73 91.624L466.594 82.024C468.813 83.9013 471.586 85.48 474.914 86.76C478.327 87.9547 481.954 88.552 485.794 88.552C490.573 88.552 494.157 87.784 496.546 86.248C499.021 84.6267 500.258 82.5787 500.258 80.104C500.258 78.312 499.789 76.7333 498.85 75.368C497.997 74.0027 496.375 72.68 493.986 71.4C491.597 70.0347 488.141 68.584 483.618 67.048C477.389 64.9147 472.695 62.3973 469.538 59.496C466.466 56.5093 464.93 52.4133 464.93 47.208C464.93 42.088 467.149 37.7787 471.586 34.28C476.109 30.696 482.338 28.904 490.274 28.904C494.541 28.904 498.338 29.3733 501.666 30.312C504.994 31.1653 507.981 32.2747 510.626 33.64L507.426 43.112C505.122 41.7467 502.477 40.6373 499.49 39.784C496.589 38.9307 493.346 38.504 489.762 38.504C485.325 38.504 481.954 39.4 479.65 41.192C477.346 42.984 476.194 44.9467 476.194 47.08C476.194 49.128 477.09 50.8773 478.882 52.328C480.674 53.7787 484.173 55.3573 489.378 57.064C497.826 59.88 503.714 62.9947 507.042 66.408C510.37 69.8213 512.034 74.088 512.034 79.208C512.034 85.1813 509.602 89.9173 504.738 93.416C499.959 96.8293 493.517 98.536 485.41 98.536ZM566.764 97C566.508 95.464 566.38 93.8853 566.38 92.264C566.38 86.7173 567.319 81.768 569.196 77.416C571.159 72.9787 573.676 68.968 576.748 65.384C579.82 61.7147 583.063 58.344 586.476 55.272C589.975 52.1147 593.217 49.128 596.204 46.312C599.276 43.4107 601.793 40.5093 603.756 37.608C605.719 34.7067 606.7 31.6773 606.7 28.52C606.7 24.936 605.377 21.992 602.732 19.688C600.087 17.2987 596.673 16.104 592.492 16.104C588.908 16.104 585.623 16.8293 582.636 18.28C579.735 19.6453 577.004 21.5227 574.444 23.912L568.044 16.104C571.457 13.032 575.212 10.5573 579.308 8.67999C583.489 6.80266 588.311 5.864 593.772 5.864C598.807 5.864 603.201 6.84533 606.956 8.808C610.711 10.6853 613.612 13.288 615.66 16.616C617.793 19.944 618.86 23.656 618.86 27.752C618.86 31.848 617.964 35.6453 616.172 39.144C614.38 42.6427 612.076 45.928 609.26 49C606.444 52.072 603.415 55.0587 600.172 57.96C596.929 60.776 593.815 63.6773 590.828 66.664C587.841 69.6507 585.281 72.7653 583.148 76.008C581.1 79.2507 579.82 82.7493 579.308 86.504H618.732V97H566.764ZM657.21 97C657.21 87.1867 657.85 78.4827 659.13 70.888C660.495 63.208 662.415 56.296 664.89 50.152C667.45 44.008 670.607 38.3333 674.362 33.128C678.117 27.9227 682.426 22.8453 687.29 17.896H644.154V7.39999H700.986V16.616C695.098 22.3333 690.191 27.9227 686.266 33.384C682.341 38.76 679.183 44.4773 676.794 50.536C674.405 56.5093 672.698 63.2933 671.674 70.888C670.65 78.3973 670.138 87.1013 670.138 97H657.21ZM742.536 98.536C736.136 98.536 731.059 96.4453 727.304 92.264C723.635 87.9973 721.8 81.9387 721.8 74.088V42.856H710.28V32.872H722.056L724.488 11.88H733.32V32.872H751.752V42.856H733.32V74.984C733.32 79.9333 734.344 83.3893 736.392 85.352C738.525 87.3147 741.043 88.296 743.944 88.296C746.077 88.296 748.083 87.9547 749.96 87.272C751.923 86.5893 753.715 85.7787 755.336 84.84L758.536 94.056C756.829 95.08 754.525 96.0613 751.624 97C748.723 98.024 745.693 98.536 742.536 98.536ZM770.115 97V2.28H781.635V41.064C784.024 37.5653 787.054 34.664 790.723 32.36C794.392 30.056 798.702 28.904 803.651 28.904C811.16 28.904 816.75 31.1653 820.419 35.688C824.174 40.2107 826.051 46.184 826.051 53.608V97H814.531V54.888C814.531 50.1093 813.422 46.2693 811.203 43.368C808.984 40.4667 805.87 39.016 801.859 39.016C797.934 39.016 794.179 40.424 790.595 43.24C787.096 45.9707 784.11 49.2133 781.635 52.968V97H770.115Z" fill="white"/>
</svg>
