<svg width="233" height="29" viewBox="0 0 233 29" fill="none" xmlns="http://www.w3.org/2000/svg">
<path d="M5.544 28.432C4.44 28.432 3.396 28.24 2.412 27.856C1.452 27.472 0.648 26.968 0 26.344L1.656 23.716C2.136 24.22 2.712 24.64 3.384 24.976C4.056 25.312 4.74 25.48 5.436 25.48C6.588 25.48 7.5 25.072 8.172 24.256C8.844 23.416 9.18 22.012 9.18 20.044V2.8H12.6V19.684C12.6 22.732 11.952 24.952 10.656 26.344C9.36 27.736 7.656 28.432 5.544 28.432ZM25.5128 28.432C23.9528 28.432 22.5368 28.036 21.2648 27.244C19.9928 26.452 18.9728 25.336 18.2048 23.896C17.4608 22.432 17.0888 20.716 17.0888 18.748C17.0888 16.876 17.4608 15.196 18.2048 13.708C18.9728 12.22 20.0168 11.044 21.3368 10.18C22.6808 9.292 24.2168 8.848 25.9448 8.848C27.0248 8.848 27.9968 9.04 28.8608 9.424C29.7488 9.784 30.5168 10.24 31.1648 10.792V9.28H34.1168V23.464C34.1168 24.376 34.3328 24.976 34.7648 25.264C35.2208 25.528 35.7128 25.66 36.2408 25.66L35.5568 28.18C33.2528 28.18 31.8608 27.244 31.3808 25.372C30.8288 26.14 30.0728 26.848 29.1128 27.496C28.1768 28.12 26.9768 28.432 25.5128 28.432ZM26.2328 25.552C27.1448 25.552 28.0088 25.336 28.8248 24.904C29.6408 24.448 30.3248 23.884 30.8768 23.212V13.168C30.2288 12.712 29.5088 12.352 28.7168 12.088C27.9488 11.8 27.1328 11.656 26.2688 11.656C25.1168 11.656 24.0968 11.956 23.2088 12.556C22.3448 13.132 21.6608 13.948 21.1568 15.004C20.6528 16.036 20.4008 17.248 20.4008 18.64C20.4008 19.984 20.6528 21.184 21.1568 22.24C21.6608 23.272 22.3568 24.088 23.2448 24.688C24.1328 25.264 25.1288 25.552 26.2328 25.552ZM47.7759 28.432C45.9999 28.432 44.4399 28.024 43.0959 27.208C41.7759 26.368 40.7559 25.216 40.0359 23.752C39.3159 22.264 38.9559 20.56 38.9559 18.64C38.9559 16.84 39.3159 15.196 40.0359 13.708C40.7799 12.22 41.8359 11.044 43.2039 10.18C44.5719 9.292 46.1799 8.848 48.0279 8.848C49.0839 8.848 50.0079 8.944 50.7999 9.136C51.6159 9.328 52.3959 9.604 53.1399 9.964L52.1679 12.7C51.4959 12.364 50.8479 12.124 50.2239 11.98C49.6239 11.812 48.9519 11.728 48.2079 11.728C46.5279 11.728 45.1119 12.34 43.9599 13.564C42.8319 14.764 42.2679 16.432 42.2679 18.568C42.2679 19.864 42.5079 21.04 42.9879 22.096C43.4679 23.152 44.1279 23.992 44.9679 24.616C45.8319 25.24 46.8399 25.552 47.9919 25.552C48.9039 25.552 49.6839 25.456 50.3319 25.264C50.9799 25.048 51.6759 24.748 52.4199 24.364L53.4279 27.1C52.6839 27.508 51.8439 27.832 50.9079 28.072C49.9959 28.312 48.9519 28.432 47.7759 28.432ZM57.1964 28V9.28H60.4364V28H57.1964ZM58.8164 6.076C58.1924 6.076 57.6524 5.848 57.1964 5.392C56.7644 4.936 56.5484 4.408 56.5484 3.808C56.5484 3.112 56.7524 2.56 57.1604 2.152C57.5684 1.744 58.1204 1.54 58.8164 1.54C59.4404 1.54 59.9684 1.768 60.4004 2.224C60.8564 2.656 61.0844 3.184 61.0844 3.808C61.0844 4.48 60.8804 5.032 60.4724 5.464C60.0644 5.872 59.5124 6.076 58.8164 6.076ZM66.1964 28V9.28H69.3284V12.412C70.0004 11.404 70.8524 10.564 71.8844 9.892C72.9404 9.196 74.1884 8.848 75.6284 8.848C77.7404 8.848 79.3124 9.484 80.3444 10.756C81.4004 12.028 81.9284 13.708 81.9284 15.796V28H78.6884V16.156C78.6884 14.812 78.3644 13.732 77.7164 12.916C77.0924 12.1 76.2164 11.692 75.0884 11.692C73.9844 11.692 72.9404 12.088 71.9564 12.88C70.9724 13.648 70.1324 14.56 69.4364 15.616V28H66.1964ZM94.0531 28.432C92.2531 28.432 90.8251 27.844 89.7691 26.668C88.7371 25.468 88.2211 23.764 88.2211 21.556V12.772H84.9811V9.964H88.2931L88.9771 4.06H91.4611V9.964H96.6451V12.772H91.4611V21.808C91.4611 23.2 91.7491 24.172 92.3251 24.724C92.9251 25.276 93.6331 25.552 94.4491 25.552C95.0491 25.552 95.6131 25.456 96.1411 25.264C96.6931 25.072 97.1971 24.844 97.6531 24.58L98.5531 27.172C98.0731 27.46 97.4251 27.736 96.6091 28C95.7931 28.288 94.9411 28.432 94.0531 28.432ZM108.271 28.432C106.711 28.432 105.295 28.036 104.023 27.244C102.751 26.452 101.731 25.336 100.963 23.896C100.219 22.432 99.8466 20.716 99.8466 18.748C99.8466 16.876 100.219 15.196 100.963 13.708C101.731 12.22 102.775 11.044 104.095 10.18C105.439 9.292 106.975 8.848 108.703 8.848C109.783 8.848 110.755 9.04 111.619 9.424C112.507 9.784 113.275 10.24 113.923 10.792V9.28H116.875V23.464C116.875 24.376 117.091 24.976 117.523 25.264C117.979 25.528 118.471 25.66 118.999 25.66L118.315 28.18C116.011 28.18 114.619 27.244 114.139 25.372C113.587 26.14 112.831 26.848 111.871 27.496C110.935 28.12 109.735 28.432 108.271 28.432ZM108.991 25.552C109.903 25.552 110.767 25.336 111.583 24.904C112.399 24.448 113.083 23.884 113.635 23.212V13.168C112.987 12.712 112.267 12.352 111.475 12.088C110.707 11.8 109.891 11.656 109.027 11.656C107.875 11.656 106.855 11.956 105.967 12.556C105.103 13.132 104.419 13.948 103.915 15.004C103.411 16.036 103.159 17.248 103.159 18.64C103.159 19.984 103.411 21.184 103.915 22.24C104.419 23.272 105.115 24.088 106.003 24.688C106.891 25.264 107.887 25.552 108.991 25.552ZM123.541 9.928L122.713 8.668C123.961 7.804 124.705 6.712 124.945 5.392C124.729 5.488 124.477 5.536 124.189 5.536C123.517 5.536 122.965 5.32 122.533 4.888C122.101 4.456 121.885 3.904 121.885 3.232C121.885 2.536 122.113 1.984 122.569 1.576C123.025 1.144 123.601 0.927999 124.297 0.927999C125.137 0.927999 125.821 1.204 126.349 1.756C126.901 2.308 127.177 3.1 127.177 4.132C127.177 5.236 126.853 6.328 126.205 7.408C125.581 8.464 124.693 9.304 123.541 9.928ZM136.522 28.432C135.106 28.432 133.822 28.252 132.67 27.892C131.542 27.532 130.606 27.064 129.862 26.488L131.23 23.788C131.854 24.316 132.634 24.76 133.57 25.12C134.53 25.456 135.55 25.624 136.63 25.624C137.974 25.624 138.982 25.408 139.654 24.976C140.35 24.52 140.698 23.944 140.698 23.248C140.698 22.744 140.566 22.3 140.302 21.916C140.062 21.532 139.606 21.16 138.934 20.8C138.262 20.416 137.29 20.008 136.018 19.576C134.266 18.976 132.946 18.268 132.058 17.452C131.194 16.612 130.762 15.46 130.762 13.996C130.762 12.556 131.386 11.344 132.634 10.36C133.906 9.352 135.658 8.848 137.89 8.848C139.09 8.848 140.158 8.98 141.094 9.244C142.03 9.484 142.87 9.796 143.614 10.18L142.714 12.844C142.066 12.46 141.322 12.148 140.482 11.908C139.666 11.668 138.754 11.548 137.746 11.548C136.498 11.548 135.55 11.8 134.902 12.304C134.254 12.808 133.93 13.36 133.93 13.96C133.93 14.536 134.182 15.028 134.686 15.436C135.19 15.844 136.174 16.288 137.638 16.768C140.014 17.56 141.67 18.436 142.606 19.396C143.542 20.356 144.01 21.556 144.01 22.996C144.01 24.676 143.326 26.008 141.958 26.992C140.614 27.952 138.802 28.432 136.522 28.432ZM159.402 28C159.33 27.568 159.294 27.124 159.294 26.668C159.294 25.108 159.558 23.716 160.086 22.492C160.638 21.244 161.346 20.116 162.21 19.108C163.074 18.076 163.986 17.128 164.946 16.264C165.93 15.376 166.842 14.536 167.682 13.744C168.546 12.928 169.254 12.112 169.806 11.296C170.358 10.48 170.634 9.628 170.634 8.74C170.634 7.732 170.262 6.904 169.518 6.256C168.774 5.584 167.814 5.248 166.638 5.248C165.63 5.248 164.706 5.452 163.866 5.86C163.05 6.244 162.282 6.772 161.562 7.444L159.762 5.248C160.722 4.384 161.778 3.688 162.93 3.16C164.106 2.632 165.462 2.368 166.998 2.368C168.414 2.368 169.65 2.644 170.706 3.196C171.762 3.724 172.578 4.456 173.154 5.392C173.754 6.328 174.054 7.372 174.054 8.524C174.054 9.676 173.802 10.744 173.298 11.728C172.794 12.712 172.146 13.636 171.354 14.5C170.562 15.364 169.71 16.204 168.798 17.02C167.886 17.812 167.01 18.628 166.17 19.468C165.33 20.308 164.61 21.184 164.01 22.096C163.434 23.008 163.074 23.992 162.93 25.048H174.018V28H159.402ZM184.84 28C184.84 25.24 185.02 22.792 185.38 20.656C185.764 18.496 186.304 16.552 187 14.824C187.72 13.096 188.608 11.5 189.664 10.036C190.72 8.572 191.932 7.144 193.3 5.752H181.168V2.8H197.152V5.392C195.496 7 194.116 8.572 193.012 10.108C191.908 11.62 191.02 13.228 190.348 14.932C189.676 16.612 189.196 18.52 188.908 20.656C188.62 22.768 188.476 25.216 188.476 28H184.84ZM208.838 28.432C207.038 28.432 205.61 27.844 204.554 26.668C203.522 25.468 203.006 23.764 203.006 21.556V12.772H199.766V9.964H203.078L203.762 4.06H206.246V9.964H211.43V12.772H206.246V21.808C206.246 23.2 206.534 24.172 207.11 24.724C207.71 25.276 208.418 25.552 209.234 25.552C209.834 25.552 210.398 25.456 210.926 25.264C211.478 25.072 211.982 24.844 212.438 24.58L213.338 27.172C212.858 27.46 212.21 27.736 211.394 28C210.578 28.288 209.726 28.432 208.838 28.432ZM216.595 28V1.36H219.835V12.268C220.507 11.284 221.359 10.468 222.391 9.82C223.423 9.172 224.635 8.848 226.027 8.848C228.139 8.848 229.711 9.484 230.743 10.756C231.799 12.028 232.327 13.708 232.327 15.796V28H229.087V16.156C229.087 14.812 228.775 13.732 228.151 12.916C227.527 12.1 226.651 11.692 225.523 11.692C224.419 11.692 223.363 12.088 222.355 12.88C221.371 13.648 220.531 14.56 219.835 15.616V28H216.595Z" fill="white"/>
</svg>
