<svg width="528" height="528" viewBox="0 0 528 528" fill="none" xmlns="http://www.w3.org/2000/svg">
<g opacity="0.2">
<path d="M376.169 338.561C376.169 433.157 300.966 509.826 208.218 509.826C115.469 509.826 40.2656 433.157 40.2656 338.561C40.2656 243.964 115.469 167.295 208.218 167.295C300.966 167.295 376.169 243.964 376.169 338.561Z" stroke="#94918E"/>
<path d="M186.712 305.824C189.187 305.824 191.619 305.781 194.008 305.696C196.397 305.525 198.872 305.397 201.432 305.312C201.773 305.653 201.901 306.251 201.816 307.104C201.816 307.957 201.688 308.555 201.432 308.896C200.92 308.896 199.981 308.981 198.616 309.152C197.251 309.237 195.971 309.408 194.776 309.664C193.581 309.92 192.899 310.304 192.728 310.816C192.387 311.84 192.173 313.205 192.088 314.912C192.088 316.533 192.088 318.283 192.088 320.16V372.896C192.088 383.307 190.808 391.712 188.248 398.112C185.773 404.512 182.317 409.163 177.88 412.064C173.528 414.965 168.536 416.416 162.904 416.416C161.965 416.416 160.6 416.16 158.808 415.648C157.016 415.221 155.736 414.709 154.968 414.112C154.285 413.429 153.944 412.491 153.944 411.296C153.944 409.333 154.456 407.669 155.48 406.304C156.504 404.939 157.997 404.256 159.96 404.256C161.155 404.256 162.264 404.64 163.288 405.408C164.227 406.261 165.123 407.072 165.976 407.84C166.659 408.437 167.469 409.035 168.408 409.632C169.432 410.229 170.499 410.528 171.608 410.528C172.888 410.528 174.125 409.973 175.32 408.864C176.515 407.84 177.539 406.005 178.392 403.36C179.245 400.715 179.928 396.96 180.44 392.096C180.952 387.232 181.208 381.045 181.208 373.536V320.16C181.208 318.283 181.165 316.533 181.08 314.912C181.08 313.205 180.909 311.84 180.568 310.816C180.483 310.304 179.8 309.92 178.52 309.664C177.325 309.408 176.045 309.237 174.68 309.152C173.4 308.981 172.504 308.896 171.992 308.896C171.736 308.555 171.565 307.957 171.48 307.104C171.48 306.251 171.651 305.653 171.992 305.312C174.552 305.397 177.027 305.525 179.416 305.696C181.891 305.781 184.323 305.824 186.712 305.824ZM211.016 382.368C211.016 380.491 211.699 378.912 213.064 377.632C214.515 376.267 216.179 375.584 218.056 375.584C219.933 375.584 221.512 376.267 222.792 377.632C224.072 378.912 224.712 380.491 224.712 382.368C224.712 384.245 224.072 385.909 222.792 387.36C221.512 388.725 219.933 389.408 218.056 389.408C216.179 389.408 214.515 388.725 213.064 387.36C211.699 385.909 211.016 384.245 211.016 382.368Z" fill="#94918E"/>
<circle cx="230.31" cy="302.109" r="212.136" stroke="#94918E"/>
<circle cx="264" cy="264" r="263.5" stroke="#94918E"/>
</g>
</svg>
